PathFileType	4	(X/Y/Z)	45_2_112_p1_0-226_filt_butterworth.trc
DataRate	CameraRate	NumFrames	NumMarkers	Units	OrigDataRate	OrigDataStartFrame	OrigNumFrames
50.0	50.0	7	27	m	50.0	197	226
Frame#	Time	RHip			RKnee			RAnkle			RBigToe			RSmallToe			RHeel			LHip			LKnee			LAnkle			LBigToe			LSmallToe			LHeel			Neck			Head			Nose			RShoulder			RElbow			RWrist			RThumb			RIndex			RPinky			LShoulder			LElbow			LWrist			LThumb			LIndex			LPinky			
		X1	Y1	Z1	X2	Y2	Z2	X3	Y3	Z3	X4	Y4	Z4	X5	Y5	Z5	X6	Y6	Z6	X7	Y7	Z7	X8	Y8	Z8	X9	Y9	Z9	X10	Y10	Z10	X11	Y11	Z11	X12	Y12	Z12	X13	Y13	Z13	X14	Y14	Z14	X15	Y15	Z15	X16	Y16	Z16	X17	Y17	Z17	X18	Y18	Z18	X19	Y19	Z19	X20	Y20	Z20	X21	Y21	Z21	X22	Y22	Z22	X23	Y23	Z23	X24	Y24	Z24	X25	Y25	Z25	X26	Y26	Z26	X27	Y27	Z27	
197	3.94	0.6035024869407426	0.4790539366080116	0.9353650669969145	0.618732727380962	0.6943815581093292	1.332332623794704	0.6216304193774419	0.8123533949254849	1.6725222637095674	0.5898496737535907	0.685804015622298	1.7515417950366352	0.6487318872134369	0.7037088985092681	1.7470606273819929	0.597709092061815	0.9312120518430018	1.7224012693606865	0.4021230252811347	0.4818845299094466	0.9549566254321383	0.4336269288992388	0.6220200277003706	1.3297035066618812	0.4368749494769485	0.849976370584473	1.6951120465681793	0.4360974626738814	0.6855708919843089	1.7582703765597043	0.3827228673670617	0.734636859102132	1.7618508980777283	0.44954520254722574	0.923133843281219	1.7384799878921342	0.46144751131685263	0.2902312902529729	0.4328753906008372	0.456097533137642	0.13951496253618575	0.2250179907378822	0.4743779860021553	0.14545176866739767	0.3592665199095748	0.6277908087873142	0.31157176197640324	0.4997048615142173	0.6777585118984869	0.37772604533540877	0.7215300112998975	0.5887935914807494	0.2572110721309878	0.9347121071534588	0.5073107560154982	0.2826145017370881	1.0331867212602233	0.5059322794739213	0.2851935881987132	1.0544380955806787	0.5163296481624299	0.28717606344652363	1.0512572219456795	0.3332977582733389	0.2926428435035897	0.5016666740472542	0.2978013750344858	0.3747089317123097	0.7425614677068174	0.4429978424978953	0.3220180204506952	0.9685371121019712	0.5224897559034738	0.2886738465971938	1.0256979483499937	0.5213281723845786	0.2890412123126682	1.0553729365823379	0.48487246227514896	0.32885417461606115	1.0656544105257313
198	3.96	0.6053860210619724	0.48010207575426544	0.9384746446751369	0.6187660721937543	0.6949137430782923	1.33252160253795	0.6216738995278062	0.8126607121876825	1.6725908722895908	0.5899742460876609	0.6863694330957765	1.7516263504577032	0.6490359126791674	0.7040023515292044	1.74701597228436	0.5963183279663667	0.9315077100180913	1.7240363518457344	0.403118662181574	0.48595879463367064	0.9562136305741443	0.43398838783493343	0.6206938671869803	1.3299703688447948	0.4390016341232911	0.849337573030307	1.6930848820050648	0.43726368622843836	0.675988770600289	1.755686325721565	0.382350834253081	0.7350269515342966	1.7600546505638635	0.4507104100904392	0.9268392920474889	1.73770479279731	0.4643859695295364	0.2871467588884623	0.43344109832795685	0.45758599132620664	0.13835421906751805	0.22470560428005876	0.4756538076512533	0.14527615506289515	0.3576341590172653	0.6290124772069966	0.3060015703840868	0.4988863844438592	0.6733488236122754	0.3786208614274581	0.7242489778362019	0.5782004031247795	0.27350112673374133	0.9318696262968722	0.49981921242389094	0.2994177292412545	1.0332444097786129	0.49814357111374535	0.31256411416557395	1.053647928348504	0.5164133324227077	0.29653118658699784	1.0550997822413257	0.3342546126214513	0.29279075523634823	0.5009110929250374	0.3063539092498376	0.372058899226219	0.7415099765938938	0.45470708802373205	0.33145077347409657	0.9574768384847356	0.5293124081931345	0.3086481237587597	1.0256849094309712	0.5236358054818584	0.29678438728273804	1.0506996700172653	0.4892935128150929	0.3216877677866979	1.0566101490167514
199	3.98	0.6059629236146998	0.4814036894794098	0.9417652331980827	0.6187175060022982	0.695430911280124	1.3326692286726833	0.6216734454137081	0.8126047966779701	1.6726188772158699	0.5901477901192913	0.6869543946057475	1.7517331627180723	0.649018825279293	0.7045039966799034	1.7469937414856114	0.5957187876539529	0.932366473016701	1.72672375091925	0.40252784497013705	0.4879442550097597	0.953245590828459	0.4354612989027442	0.6150151018694987	1.3285531837880997	0.4403566414504333	0.8441419020016363	1.6905272634442203	0.4400606132218702	0.6705632165955286	1.7542009152739242	0.382681048553032	0.7337073613655601	1.7588635995805602	0.4510078527116459	0.9270931670448217	1.7375198103933702	0.4673420109171567	0.28211837469992607	0.43477189682105727	0.4595716725549035	0.13536217107569945	0.2244227540334786	0.4761962704292587	0.14486118268621875	0.356563841368569	0.6297773094034181	0.3011987621904853	0.4982106075021332	0.670019592716281	0.3793602797500517	0.7266253587031806	0.5670438518810327	0.2918016743010291	0.9284228847361684	0.494651908598202	0.3025830598177341	1.0337159851387223	0.49276091623202256	0.327725078700844	1.0503370620375947	0.5169103475916393	0.3012259719494785	1.0546431851490239	0.3346018846803177	0.293060376252878	0.501292751307333	0.31581324382499276	0.36441961172432313	0.7419971036578091	0.4657804776376026	0.3338192383132932	0.946816255881503	0.5349371329900827	0.32360747414396607	1.0269919811742156	0.5260492812909174	0.30596442049779604	1.0470951838012414	0.487798734255395	0.33179734801847743	1.04779901087102
200	4.0	0.6057238690266997	0.48422766900625075	0.9447517584929461	0.6186934584459693	0.6955739701324879	1.3326869286911303	0.6216400890870266	0.8124874867689479	1.6726323784469823	0.589920500200287	0.685871980909821	1.7515294973497195	0.6491101898262058	0.7049596007251051	1.7469849267463275	0.5960888556792954	0.9330718728261105	1.7296893457048261	0.40254732307071606	0.4916169710773384	0.951035946463374	0.4375847965748958	0.6065302287537211	1.3255698395926985	0.4406307816628966	0.8360747580377921	1.6881201964668815	0.44267215730046705	0.6701410288761241	1.753712802331877	0.38464688412351156	0.7290874641427509	1.7585928246836104	0.45082122584261797	0.9261690205699304	1.7376418353196705	0.4688620946226892	0.2784379542568776	0.4357317883810975	0.4613553960446476	0.132189292480739	0.22428388161948065	0.4764605197727678	0.14547936842138923	0.3560809353363712	0.6298825550544868	0.29912767828294146	0.49788053382271047	0.6672195128319217	0.3797333697066943	0.7289950333545518	0.5574831828682881	0.30795968670908297	0.9268993094969392	0.4851556921569976	0.2885923588641328	1.0333536312999287	0.48561049714896154	0.3325224954769995	1.0467854024967922	0.5154134284013745	0.3194595615343117	1.0524581075593364	0.33454963972138524	0.2933193083979854	0.5024346581681569	0.3259040567483668	0.35918964269451675	0.742567301718824	0.4770817807989279	0.33033746838553685	0.9389654291270273	0.5391224860966543	0.3202401035214951	1.025528899038366	0.5294631869713878	0.3101344920148337	1.0444194617101772	0.4861441138272552	0.36245441878356854	1.0412185468373563
201	4.02	0.6046858694741697	0.4896251169361971	0.9483428074677763	0.6187813197060902	0.695490676951093	1.3327535262560493	0.621641767749868	0.8123757729624012	1.6726220367756952	0.5888495019801345	0.681521846566029	1.750684103851924	0.6492315234798381	0.7051492362642084	1.7469823971866343	0.5967071490508014	0.933260545418281	1.7320846268907535	0.40410997570364776	0.4977518362264139	0.9544515125299898	0.4389296759562356	0.6003589550059634	1.3232615455773722	0.4405060303738343	0.8306920102986578	1.6873802049099427	0.4439155179308082	0.6713346495961405	1.7535914874827276	0.3881592511267117	0.7229348475890942	1.7587109181926979	0.4506187119541685	0.9259610171561976	1.7379067927221865	0.46925074821478097	0.27842067597249226	0.4352391053902227	0.46290182860301077	0.132540262029929	0.2238593757975164	0.47749819637869817	0.14847542117210158	0.3553192499358119	0.6301245632158274	0.300100286441919	0.49785231421976284	0.6641546181902434	0.38011136455316863	0.7308407626022384	0.549987413136042	0.32032804151331173	0.9270986519076657	0.46827531820459206	0.27961276138532987	1.0303543512707942	0.4752754284260436	0.3396879184831046	1.0431879943334559	0.5093957739122906	0.35685858120597347	1.0508483430529083	0.3344415541244347	0.29355015670215306	0.5038345772001142	0.33468033420044174	0.3614617933620267	0.7409786627997825	0.4867671204830835	0.3270516879639893	0.9338958900653644	0.5437299084122128	0.3127282967854803	1.0214616398906051	0.5357229237367445	0.3161284603810152	1.0412277470437392	0.49396989386857054	0.40791621904800407	1.035686485131606
202	4.04	0.6031466793621132	0.495686141147532	0.9516841436832688	0.6189384592598686	0.6954705539396793	1.3329901002447033	0.621745067774053	0.812035813464222	1.67253000172698	0.5876257565051228	0.6766003217752684	1.7497026727840252	0.6492762357701886	0.7049726940052761	1.7469843999302521	0.596837493816701	0.9329966920562736	1.7325607975245632	0.4058835995160327	0.5027347432937737	0.9616976865838168	0.438638203374178	0.5999693527999894	1.3235623033440673	0.44052964961283786	0.8297765996845646	1.688772622192106	0.4443038395943001	0.6734360983177012	1.754170149759955	0.3915465078789242	0.719224304434355	1.758790041384849	0.4504989291631142	0.9265467220325857	1.7384162971658617	0.4698224943358848	0.2820115332448853	0.43368042071656965	0.46500419274614924	0.13660379519545218	0.2226201380404204	0.4797222891268549	0.15305958018757881	0.354017823378995	0.6313805865784999	0.3044203662980449	0.49829927951082614	0.6613667819908823	0.3813084942715735	0.7315766008584407	0.5441596515668462	0.32716975970874296	0.9271260617626533	0.4578697051769124	0.2970580825325726	1.0241904061670979	0.46796786333177354	0.358657701834067	1.0374806392483635	0.4948146714730486	0.3912493376138142	1.0481910341605283	0.3343967553944806	0.29400977562329106	0.5047346273316025	0.3403601859236572	0.3681591743603615	0.7382579939845919	0.49103521809506806	0.33392775452790907	0.9307300795131018	0.5538794637456546	0.32764356004805356	1.016866568887047	0.550671244941199	0.34273605836257104	1.0360433063627668	0.513617730605358	0.45520442565936015	1.0302860189602283
203	4.06	0.6021656073266608	0.498924252692708	0.9531525637674916	0.61903518973108	0.6952533447085906	1.3329211102925111	0.6218818779652544	0.8116143339434039	1.672402480825782	0.5878834630456912	0.6774351873419697	1.749835733453967	0.6493013954877513	0.7045878290060341	1.7469976797056965	0.5962099868274365	0.93209602575361	1.7301305891530714	0.4061830987631482	0.5040274596028479	0.9675642100596505	0.4372481791157697	0.6053365136521284	1.3269630495588705	0.44067029396919927	0.8306439822206901	1.691690032620928	0.4451361463065032	0.6785422329546867	1.7562772675952345	0.3932773492567767	0.718742978664943	1.758757814610285	0.4503105122007799	0.9270626379969775	1.739317708098399	0.470899790902086	0.2869724768486227	0.43219111861269843	0.4675658483202426	0.1403562341453303	0.22092412047436552	0.48209945285554734	0.15654334595508612	0.3528353578497475	0.633401961496056	0.3107202399622453	0.4994274964307128	0.6591753487630653	0.3821894971382881	0.7315934940048938	0.5407314799450489	0.32877573716995306	0.9256554169504875	0.4723417765913055	0.3353374415015538	1.0172941290724526	0.47307406085279047	0.3897297979920932	1.0301974499199977	0.4773349401889963	0.40286191826326034	1.0415197994799372	0.3344504118665461	0.29473358116474835	0.5049294941530245	0.3417293694647876	0.3738543705618264	0.737529414177517	0.4894711696966261	0.35025156297940485	0.9289389030289862	0.5691267657924608	0.36085849336182296	1.0124297637504198	0.5720880168581834	0.38763590370483136	1.030049812352642	0.5348585695751642	0.4887099023922183	1.0269326111494759
